<svg xmlns="http://www.w3.org/2000/svg" xmlns:xlink="http://www.w3.org/1999/xlink" viewBox="0 0 1000 974.96"><defs><style>.cls-1{fill:#5b71e4;}.cls-2{fill:#5158d2;}.cls-3{fill:url(#Degradado_sin_nombre_21);}.cls-4{fill:url(#Degradado_sin_nombre_19);}.cls-5{fill:url(#Degradado_sin_nombre_10);}.cls-6{fill:url(#Degradado_sin_nombre_6);}</style><linearGradient id="Degradado_sin_nombre_21" x1="473.18" y1="727.67" x2="484.72" y2="828.45" gradientUnits="userSpaceOnUse"><stop offset="0" stop-color="#2430be"/><stop offset="1" stop-color="#3e59d6"/></linearGradient><linearGradient id="Degradado_sin_nombre_19" x1="414.68" y1="785.51" x2="510.66" y2="839.39" gradientUnits="userSpaceOnUse"><stop offset="0" stop-color="#3228bd"/><stop offset="1" stop-color="#5b38d5"/></linearGradient><linearGradient id="Degradado_sin_nombre_10" x1="319.92" y1="558.24" x2="717.95" y2="558.24" gradientUnits="userSpaceOnUse"><stop offset="0" stop-color="#7050d5"/><stop offset="0.3" stop-color="#5847dc"/><stop offset="1" stop-color="#5142da"/></linearGradient><linearGradient id="Degradado_sin_nombre_6" x1="299.8" y1="512.59" x2="640.92" y2="356.71" gradientUnits="userSpaceOnUse"><stop offset="0" stop-color="#6cabee"/><stop offset="0.25" stop-color="#74bcf3"/><stop offset="1" stop-color="#4b5feb"/></linearGradient></defs><g id="Logo_1" data-name="Logo 1"><g id="Capa_1" data-name="Capa 1"><path class="cls-1" d="M888.6,99.3H111.4A111.41,111.41,0,0,0,0,210.7V863.56A111.39,111.39,0,0,0,111.4,975H888.6A111.4,111.4,0,0,0,1000,863.56V210.7A111.41,111.41,0,0,0,888.6,99.3Zm27.63,743.53a64.77,64.77,0,0,1-64.77,64.77H148.53a64.77,64.77,0,0,1-64.77-64.77V295.33a64.76,64.76,0,0,1,64.77-64.76H851.46a64.77,64.77,0,0,1,64.77,64.76Z"/><rect class="cls-2" x="168.83" width="95.85" height="191.71" rx="44.9"/><rect class="cls-2" x="735.32" width="95.85" height="191.71" rx="44.9"/></g><g id="Capa_3" data-name="Capa 3"><path class="cls-3" d="M512.11,665.43q4.42-2.11,8.41-3.92V907.6c-3-3-6.74-6.66-11.26-10.77-8-22.13-36.69-95.33-90.79-167.43.64-.75,1.29-1.49,2-2.23.48-.55,1-1.08,1.49-1.61s1.23-1.34,1.87-2L425,722.4c2.53-2.55,5.2-5.06,8-7.52.53-.46,1.05-.93,1.58-1.37.2-.19.41-.37.62-.54l2-1.7c3.84-3.2,7.85-6.3,12-9.3.73-.55,1.47-1.08,2.22-1.6,3.42-2.45,6.91-4.82,10.44-7.11l2.58-1.67c1.43-.92,2.87-1.81,4.3-2.7.59-.36,1.17-.73,1.76-1.08l4.31-2.59,2.6-1.52c.86-.51,1.73-1,2.58-1.49l2.57-1.46c2.58-1.46,5.13-2.87,7.65-4.21.83-.46,1.67-.9,2.51-1.35,3.49-1.84,6.9-3.6,10.21-5.25l1.59-.8.28-.14,1.85-.9.47-.23,1.13-.55.93-.45Z"/><path class="cls-4" d="M509.26,896.83c-5.44-4.94-12-10.51-19.55-16.29a295.39,295.39,0,0,0-38.93-25.19c-5.4-3-14.47-7.94-25.67-14.73-16.18-20.4-35.73-54.94-20.32-90.19a85.45,85.45,0,0,1,13.68-21C472.57,801.5,501.27,874.7,509.26,896.83Z"/><path class="cls-5" d="M652.57,275.86c.11,1.6.21,3.22.3,4.87,1.78,30.9,1.8,69.64-17.07,111.13C617.31,432.5,593.18,448.34,438.47,563c-45,33.4-75.7,56.54-94.74,86a135.23,135.23,0,0,0-15,31.29c-4.54,13.56-15.7,46.89-2.68,79.32,29.9,35.89,71.09,64.06,99.08,81-16.18-20.4-35.73-54.94-20.32-90.19a85.45,85.45,0,0,1,13.68-21c.64-.75,1.29-1.49,2-2.23.48-.55,1-1.08,1.49-1.61s1.23-1.34,1.87-2L425,722.4c2.53-2.55,5.2-5.06,8-7.52.53-.47,1.05-.93,1.58-1.37.2-.19.41-.37.62-.54l2-1.7c3.84-3.2,7.85-6.3,12-9.3.73-.55,1.47-1.08,2.22-1.6,3.42-2.45,6.91-4.82,10.44-7.11l2.58-1.67c1.43-.92,2.87-1.81,4.3-2.7.59-.36,1.17-.73,1.76-1.08l4.31-2.59c.87-.51,1.73-1,2.6-1.52s1.73-1,2.58-1.49l2.57-1.46c2.58-1.46,5.13-2.87,7.65-4.21.84-.46,1.67-.91,2.51-1.35,3.49-1.84,6.9-3.6,10.21-5.25l1.59-.8.28-.14,1.85-.9.47-.23,1.13-.55.93-.45c1-.5,2-1,3-1.44q4.42-2.11,8.41-3.92v.83s192.14-53.53,197.32-201.2C720,398.65,689.05,332,652.57,275.86Z"/><path class="cls-6" d="M635.8,391.86C617.31,432.5,593.18,448.34,438.47,563c-45,33.4-75.7,56.54-94.74,86a135.23,135.23,0,0,0-15,31.29c-4.54,13.56-15.7,46.89-2.68,79.32a195.89,195.89,0,0,1-22.27-32.49c-19-35.47-25.63-79.68-19.49-119.93A176.24,176.24,0,0,1,290,582c32.31-105.91,146.34-105.28,214.49-211.15,26.67-41.42,54-111.09,38.51-228.41,0,0,27,25.65,59.81,65.66a768.36,768.36,0,0,1,49.81,67.72c.11,1.6.21,3.22.3,4.87C654.65,311.63,654.67,350.37,635.8,391.86Z"/></g></g></svg>